M48
; DRILL file {KiCad (5.1.4)-1} date 5/28/2022 8:26:00 PM
; FORMAT={-:-/ absolute / inch / decimal}
; #@! TF.CreationDate,2022-05-28T20:26:00-07:00
; #@! TF.GenerationSoftware,Kicad,Pcbnew,(5.1.4)-1
; #@! TF.FileFunction,NonPlated,1,2,NPTH
FMAT,2
INCH
T1C0.0689
T2C0.1200
T3C0.1570
%
G90
G05
T1
X7.4562Y-0.9062
X7.8563Y-0.9062
X8.2062Y-2.4062
X8.6062Y-2.4062
X7.6437Y-3.9062
X8.0437Y-3.9062
X-0.0437Y-2.4062
X0.3563Y-2.4062
X5.9562Y-0.9062
X6.3563Y-0.9062
X7.4562Y-3.1562
X7.8563Y-3.1562
X11.2062Y-3.9062
X11.6062Y-3.9062
X4.4562Y-2.4062
X4.8563Y-2.4062
X3.7062Y-0.9062
X4.1063Y-0.9062
X10.4562Y-3.1562
X10.8562Y-3.1562
X1.4563Y-2.4062
X1.8562Y-2.4062
X4.4562Y-0.9062
X4.8563Y-0.9062
X0.7062Y-3.9062
X1.1062Y-3.9062
X8.2062Y-1.6562
X8.6062Y-1.6562
X2.9562Y-1.6562
X3.3562Y-1.6562
X3.7062Y-3.1562
X4.1063Y-3.1562
X9.425Y-2.4062
X9.825Y-2.4062
X4.4562Y-1.6562
X4.8563Y-1.6562
X11.2062Y-3.1562
X11.6062Y-3.1562
X9.8937Y-1.6562
X10.2937Y-1.6562
X2.9562Y-3.9062
X3.3562Y-3.9062
X8.9562Y-0.9062
X9.3562Y-0.9062
X0.7062Y-0.9062
X1.1062Y-0.9062
X6.7062Y-1.6562
X7.1063Y-1.6562
X2.2062Y-1.6562
X2.6062Y-1.6562
X6.7062Y-3.1562
X7.1063Y-3.1562
X8.4875Y-3.9062
X8.8875Y-3.9062
X3.7062Y-2.4062
X4.1063Y-2.4062
X0.7062Y-1.6562
X1.1062Y-1.6562
X2.9562Y-3.1562
X3.3562Y-3.1562
X5.9562Y-3.9062
X6.3563Y-3.9062
X6.7062Y-2.4062
X7.1063Y-2.4062
X5.2062Y-0.9062
X5.6063Y-0.9062
X4.4562Y-3.1562
X4.8563Y-3.1562
X9.7062Y-3.9062
X10.1062Y-3.9062
X2.2062Y-2.4062
X2.6062Y-2.4062
X-0.0437Y-1.6562
X0.3563Y-1.6562
X1.4563Y-3.9062
X1.8562Y-3.9062
X10.925Y-2.4062
X11.325Y-2.4062
X0.7062Y-2.4062
X1.1062Y-2.4062
X1.4563Y-1.6562
X1.8562Y-1.6562
X5.9562Y-3.1562
X6.3563Y-3.1562
X11.0187Y-1.6562
X11.4187Y-1.6562
X-0.0437Y-0.9062
X0.3563Y-0.9062
X5.9562Y-1.6562
X6.3563Y-1.6562
X1.4563Y-3.1562
X1.8562Y-3.1562
X2.9562Y-0.9062
X3.3562Y-0.9062
X6.7062Y-0.9062
X7.1063Y-0.9062
X7.4562Y-1.6562
X7.8563Y-1.6562
X8.2062Y-0.9062
X8.6062Y-0.9062
X-0.0437Y-3.1562
X0.3563Y-3.1562
X6.8Y-3.9062
X7.2Y-3.9062
X2.9562Y-2.4062
X3.3562Y-2.4062
X10.0812Y-0.9062
X10.4812Y-0.9062
X2.2062Y-3.1562
X2.6062Y-3.1562
X5.2062Y-3.9062
X5.6063Y-3.9062
X5.9562Y-2.4062
X6.3563Y-2.4062
X11.2062Y-0.9062
X11.6062Y-0.9062
X0.7062Y-3.1562
X1.1062Y-3.1562
X4.0812Y-3.9062
X4.4813Y-3.9062
X5.2062Y-2.4062
X5.6063Y-2.4062
X2.2062Y-0.9062
X2.6062Y-0.9062
X8.2062Y-3.1562
X8.6062Y-3.1562
X8.9562Y-1.6562
X9.3562Y-1.6562
X1.4563Y-0.9062
X1.8562Y-0.9062
X5.2062Y-3.1562
X5.6063Y-3.1562
X5.2062Y-1.6562
X5.6063Y-1.6562
X-0.0437Y-3.9062
X0.3563Y-3.9062
X9.3312Y-3.1562
X9.7312Y-3.1562
X10.4562Y-3.9062
X10.8562Y-3.9062
X2.2062Y-3.9062
X2.6062Y-3.9062
X3.7062Y-1.6562
X4.1063Y-1.6562
X7.4562Y-2.4062
X7.8563Y-2.4062
T2
X9.8125Y-0.6312
X10.75Y-0.6312
X3.8125Y-4.1812
X4.75Y-4.1812
X9.0625Y-3.4312
X10.0Y-3.4312
X9.1562Y-2.6812
X10.0938Y-2.6812
T3
X10.6562Y-3.9062
X2.4062Y-3.9062
X3.9062Y-1.6562
X7.6562Y-2.4062
X7.6562Y-0.9062
X8.4062Y-2.4062
X7.8438Y-3.9062
X0.1562Y-2.4062
X6.1562Y-0.9062
X7.6562Y-3.1562
X11.4062Y-3.9062
X4.6562Y-2.4062
X3.9062Y-0.9062
X10.6562Y-3.1562
X1.6562Y-2.4062
X4.6562Y-0.9062
X0.9062Y-3.9062
X8.4062Y-1.6562
X3.1562Y-1.6562
X3.9062Y-3.1562
X9.1562Y-2.0812
X9.625Y-2.4062
X10.0938Y-2.0812
X4.6562Y-1.6562
X11.4062Y-3.1562
X10.0938Y-1.6562
X3.1562Y-3.9062
X9.1562Y-0.9062
X0.9062Y-0.9062
X6.9062Y-1.6562
X2.4062Y-1.6562
X6.9062Y-3.1562
X8.6875Y-3.9062
X3.9062Y-2.4062
X0.9062Y-1.6562
X3.1562Y-3.1562
X6.1562Y-3.9062
X6.9062Y-2.4062
X5.4062Y-0.9062
X4.6562Y-3.1562
X9.9062Y-3.9062
X2.4062Y-2.4062
X0.1562Y-1.6562
X1.6562Y-3.9062
X11.125Y-2.4062
X0.9062Y-2.4062
X1.6562Y-1.6562
X6.1562Y-3.1562
X11.2188Y-1.6562
X0.1562Y-0.9062
X6.1562Y-1.6562
X1.6562Y-3.1562
X3.1562Y-0.9062
X6.9062Y-0.9062
X7.6562Y-1.6562
X8.4062Y-0.9062
X0.1562Y-3.1562
X7.0Y-3.9062
X3.1562Y-2.4062
X9.8125Y-1.2312
X10.2812Y-0.9062
X10.75Y-1.2312
X2.4062Y-3.1562
X5.4062Y-3.9062
X6.1562Y-2.4062
X11.4062Y-0.9062
X0.9062Y-3.1562
X3.8125Y-3.5812
X4.2812Y-3.9062
X4.75Y-3.5812
X5.4062Y-2.4062
X2.4062Y-0.9062
X8.4062Y-3.1562
X9.1562Y-1.6562
X1.6562Y-0.9062
X5.4062Y-3.1562
X5.4062Y-1.6562
X0.1562Y-3.9062
X9.0625Y-2.8312
X9.5312Y-3.1562
X10.0Y-2.8312
T0
M30
