G04 #@! TF.GenerationSoftware,KiCad,Pcbnew,(5.1.4)-1*
G04 #@! TF.CreationDate,2022-05-27T22:53:24-07:00*
G04 #@! TF.ProjectId,bakeneko65ortho-plate,62616b65-6e65-46b6-9f36-356f7274686f,rev?*
G04 #@! TF.SameCoordinates,Original*
G04 #@! TF.FileFunction,Profile,NP*
%FSLAX46Y46*%
G04 Gerber Fmt 4.6, Leading zero omitted, Abs format (unit mm)*
G04 Created by KiCad (PCBNEW (5.1.4)-1) date 2022-05-27 22:53:24*
%MOMM*%
%LPD*%
G04 APERTURE LIST*
%ADD10C,0.200000*%
G04 APERTURE END LIST*
D10*
X265375000Y-14468750D02*
X290725000Y-14468750D01*
X36775000Y-14468750D02*
X62125000Y-14468750D01*
X255586500Y-55056250D02*
G75*
G02X255086500Y-54556250I0J500000D01*
G01*
X248086500Y-54556250D02*
X248086500Y-53556250D01*
X271962500Y-54556250D02*
G75*
G02X271462500Y-55056250I-500000J0D01*
G01*
X278462500Y-53056250D02*
X272462500Y-53056250D01*
X279462500Y-55056250D02*
G75*
G02X278962500Y-54556250I0J500000D01*
G01*
X271462500Y-55056250D02*
X255586500Y-55056250D01*
X271962500Y-54556250D02*
X271962500Y-53556250D01*
X279549500Y-55056250D02*
X279462500Y-55056250D01*
X247586500Y-55056250D02*
X247499500Y-55056250D01*
X248086500Y-53556250D02*
G75*
G02X248586500Y-53056250I500000J0D01*
G01*
X254586500Y-53056250D02*
G75*
G02X255086500Y-53556250I0J-500000D01*
G01*
X248086500Y-54556250D02*
G75*
G02X247586500Y-55056250I-500000J0D01*
G01*
X271962500Y-53556250D02*
G75*
G02X272462500Y-53056250I500000J0D01*
G01*
X254586500Y-53056250D02*
X248586500Y-53056250D01*
X278962500Y-54556250D02*
X278962500Y-53556250D01*
X255086500Y-54556250D02*
X255086500Y-53556250D01*
X278462500Y-53056250D02*
G75*
G02X278962500Y-53556250I0J-500000D01*
G01*
X279549500Y-69056250D02*
X247499500Y-69056250D01*
X277318750Y-88112500D02*
X245268750Y-88112500D01*
X276231750Y-72112500D02*
G75*
G02X276731750Y-72612500I0J-500000D01*
G01*
X269231750Y-74112500D02*
X253355750Y-74112500D01*
X245855750Y-73612500D02*
X245855750Y-72612500D01*
X277231750Y-74112500D02*
G75*
G02X276731750Y-73612500I0J500000D01*
G01*
X276731750Y-73612500D02*
X276731750Y-72612500D01*
X245855750Y-73612500D02*
G75*
G02X245355750Y-74112500I-500000J0D01*
G01*
X245355750Y-74112500D02*
X245268750Y-74112500D01*
X269731750Y-73612500D02*
X269731750Y-72612500D01*
X252355750Y-72112500D02*
G75*
G02X252855750Y-72612500I0J-500000D01*
G01*
X269731750Y-72612500D02*
G75*
G02X270231750Y-72112500I500000J0D01*
G01*
X269731750Y-73612500D02*
G75*
G02X269231750Y-74112500I-500000J0D01*
G01*
X277318750Y-74112500D02*
X277231750Y-74112500D01*
X276231750Y-72112500D02*
X270231750Y-72112500D01*
X252855750Y-73612500D02*
X252855750Y-72612500D01*
X245855750Y-72612500D02*
G75*
G02X246355750Y-72112500I500000J0D01*
G01*
X252355750Y-72112500D02*
X246355750Y-72112500D01*
X253355750Y-74112500D02*
G75*
G02X252855750Y-73612500I0J500000D01*
G01*
X211312500Y-93693750D02*
X211312500Y-106693750D01*
X211812500Y-107193750D02*
X224812500Y-107193750D01*
X224812500Y-93193750D02*
G75*
G02X225312500Y-93693750I0J-500000D01*
G01*
X225312500Y-106693750D02*
G75*
G02X224812500Y-107193750I-500000J0D01*
G01*
X225312500Y-93693750D02*
X225312500Y-106693750D01*
X246743750Y-106693750D02*
G75*
G02X246243750Y-107193750I-500000J0D01*
G01*
X189881250Y-93693750D02*
G75*
G02X190381250Y-93193750I500000J0D01*
G01*
X189881250Y-93693750D02*
X189881250Y-106693750D01*
X182450000Y-93693750D02*
X182450000Y-106693750D01*
X68150000Y-93693750D02*
X68150000Y-106693750D01*
X162900000Y-93193750D02*
G75*
G02X163400000Y-93693750I0J-500000D01*
G01*
X87200000Y-93693750D02*
X87200000Y-106693750D01*
X92250000Y-93693750D02*
G75*
G02X92750000Y-93193750I500000J0D01*
G01*
X168950000Y-93193750D02*
X181950000Y-93193750D01*
X73700000Y-107193750D02*
G75*
G02X73200000Y-106693750I0J500000D01*
G01*
X211312500Y-93693750D02*
G75*
G02X211812500Y-93193750I500000J0D01*
G01*
X211812500Y-93193750D02*
X224812500Y-93193750D01*
X181950000Y-93193750D02*
G75*
G02X182450000Y-93693750I0J-500000D01*
G01*
X67650000Y-93193750D02*
G75*
G02X68150000Y-93693750I0J-500000D01*
G01*
X168450000Y-93693750D02*
G75*
G02X168950000Y-93193750I500000J0D01*
G01*
X35600000Y-107193750D02*
G75*
G02X35100000Y-106693750I0J500000D01*
G01*
X68150000Y-106693750D02*
G75*
G02X67650000Y-107193750I-500000J0D01*
G01*
X168950000Y-107193750D02*
G75*
G02X168450000Y-106693750I0J500000D01*
G01*
X149400000Y-93693750D02*
G75*
G02X149900000Y-93193750I500000J0D01*
G01*
X49100000Y-106693750D02*
G75*
G02X48600000Y-107193750I-500000J0D01*
G01*
X92750000Y-93193750D02*
X105750000Y-93193750D01*
X149900000Y-107193750D02*
X162900000Y-107193750D01*
X48600000Y-93193750D02*
G75*
G02X49100000Y-93693750I0J-500000D01*
G01*
X54650000Y-107193750D02*
G75*
G02X54150000Y-106693750I0J500000D01*
G01*
X203381250Y-93193750D02*
G75*
G02X203881250Y-93693750I0J-500000D01*
G01*
X73200000Y-93693750D02*
X73200000Y-106693750D01*
X149900000Y-93193750D02*
X162900000Y-93193750D01*
X73700000Y-107193750D02*
X86700000Y-107193750D01*
X73200000Y-93693750D02*
G75*
G02X73700000Y-93193750I500000J0D01*
G01*
X203881250Y-106693750D02*
G75*
G02X203381250Y-107193750I-500000J0D01*
G01*
X168450000Y-93693750D02*
X168450000Y-106693750D01*
X149400000Y-93693750D02*
X149400000Y-106693750D01*
X54150000Y-93693750D02*
G75*
G02X54650000Y-93193750I500000J0D01*
G01*
X203881250Y-93693750D02*
X203881250Y-106693750D01*
X106250000Y-106693750D02*
G75*
G02X105750000Y-107193750I-500000J0D01*
G01*
X190381250Y-93193750D02*
X203381250Y-93193750D01*
X92750000Y-107193750D02*
G75*
G02X92250000Y-106693750I0J500000D01*
G01*
X54650000Y-107193750D02*
X67650000Y-107193750D01*
X163400000Y-93693750D02*
X163400000Y-106693750D01*
X92250000Y-93693750D02*
X92250000Y-106693750D01*
X106250000Y-93693750D02*
X106250000Y-106693750D01*
X35100000Y-93693750D02*
X35100000Y-106693750D01*
X105750000Y-93193750D02*
G75*
G02X106250000Y-93693750I0J-500000D01*
G01*
X92750000Y-107193750D02*
X105750000Y-107193750D01*
X87200000Y-106693750D02*
G75*
G02X86700000Y-107193750I-500000J0D01*
G01*
X35600000Y-107193750D02*
X48600000Y-107193750D01*
X190381250Y-107193750D02*
X203381250Y-107193750D01*
X54150000Y-93693750D02*
X54150000Y-106693750D01*
X54650000Y-93193750D02*
X67650000Y-93193750D01*
X49100000Y-93693750D02*
X49100000Y-106693750D01*
X86700000Y-93193750D02*
G75*
G02X87200000Y-93693750I0J-500000D01*
G01*
X168950000Y-107193750D02*
X181950000Y-107193750D01*
X190381250Y-107193750D02*
G75*
G02X189881250Y-106693750I0J500000D01*
G01*
X73700000Y-93193750D02*
X86700000Y-93193750D01*
X182450000Y-106693750D02*
G75*
G02X181950000Y-107193750I-500000J0D01*
G01*
X163400000Y-106693750D02*
G75*
G02X162900000Y-107193750I-500000J0D01*
G01*
X149900000Y-107193750D02*
G75*
G02X149400000Y-106693750I0J500000D01*
G01*
X233243750Y-107193750D02*
G75*
G02X232743750Y-106693750I0J500000D01*
G01*
X211812500Y-107193750D02*
G75*
G02X211312500Y-106693750I0J500000D01*
G01*
X232743750Y-93693750D02*
G75*
G02X233243750Y-93193750I500000J0D01*
G01*
X246243750Y-93193750D02*
G75*
G02X246743750Y-93693750I0J-500000D01*
G01*
X246743750Y-93693750D02*
X246743750Y-106693750D01*
X233243750Y-107193750D02*
X246243750Y-107193750D01*
X233243750Y-93193750D02*
X246243750Y-93193750D01*
X232743750Y-93693750D02*
X232743750Y-106693750D01*
X35600000Y-93193750D02*
X48600000Y-93193750D01*
X30050000Y-106693750D02*
G75*
G02X29550000Y-107193750I-500000J0D01*
G01*
X16050000Y-93693750D02*
X16050000Y-106693750D01*
X16050000Y-93693750D02*
G75*
G02X16550000Y-93193750I500000J0D01*
G01*
X16550000Y-107193750D02*
G75*
G02X16050000Y-106693750I0J500000D01*
G01*
X30050000Y-93693750D02*
X30050000Y-106693750D01*
X35100000Y-93693750D02*
G75*
G02X35600000Y-93193750I500000J0D01*
G01*
X29550000Y-93193750D02*
G75*
G02X30050000Y-93693750I0J-500000D01*
G01*
X16550000Y-107193750D02*
X29550000Y-107193750D01*
X16550000Y-93193750D02*
X29550000Y-93193750D01*
X277818750Y-74612500D02*
X277818750Y-87612500D01*
X245268750Y-88112500D02*
G75*
G02X244768750Y-87612500I0J500000D01*
G01*
X277318750Y-74112500D02*
G75*
G02X277818750Y-74612500I0J-500000D01*
G01*
X277231750Y-88112500D02*
X277318750Y-88112500D01*
X245268750Y-88112500D02*
X245355750Y-88112500D01*
X244768750Y-74612500D02*
G75*
G02X245268750Y-74112500I500000J0D01*
G01*
X244768750Y-74612500D02*
X244768750Y-87612500D01*
X277818750Y-87612500D02*
G75*
G02X277318750Y-88112500I-500000J0D01*
G01*
X118881000Y-91210500D02*
X112881000Y-91210500D01*
X143257000Y-92710500D02*
X143257000Y-91710500D01*
X136257000Y-92710500D02*
X136257000Y-91710500D01*
X143844000Y-107210500D02*
X111794000Y-107210500D01*
X142757000Y-91210500D02*
G75*
G02X143257000Y-91710500I0J-500000D01*
G01*
X111294000Y-106710500D02*
X111294000Y-93710500D01*
X143844000Y-93210500D02*
G75*
G02X144344000Y-93710500I0J-500000D01*
G01*
X112381000Y-92710500D02*
G75*
G02X111881000Y-93210500I-500000J0D01*
G01*
X136257000Y-91710500D02*
G75*
G02X136757000Y-91210500I500000J0D01*
G01*
X119381000Y-92710500D02*
X119381000Y-91710500D01*
X111794000Y-107210500D02*
G75*
G02X111294000Y-106710500I0J500000D01*
G01*
X118881000Y-91210500D02*
G75*
G02X119381000Y-91710500I0J-500000D01*
G01*
X112381000Y-91710500D02*
G75*
G02X112881000Y-91210500I500000J0D01*
G01*
X111881000Y-93210500D02*
X111794000Y-93210500D01*
X143844000Y-93210500D02*
X143757000Y-93210500D01*
X144344000Y-106710500D02*
G75*
G02X143844000Y-107210500I-500000J0D01*
G01*
X144344000Y-106710500D02*
X144344000Y-93710500D01*
X111294000Y-93710500D02*
G75*
G02X111794000Y-93210500I500000J0D01*
G01*
X112381000Y-92710500D02*
X112381000Y-91710500D01*
X135757000Y-93210500D02*
X119881000Y-93210500D01*
X142757000Y-91210500D02*
X136757000Y-91210500D01*
X119881000Y-93210500D02*
G75*
G02X119381000Y-92710500I0J500000D01*
G01*
X143757000Y-93210500D02*
G75*
G02X143257000Y-92710500I0J500000D01*
G01*
X136257000Y-92710500D02*
G75*
G02X135757000Y-93210500I-500000J0D01*
G01*
X239600000Y-87643750D02*
G75*
G02X239100000Y-88143750I-500000J0D01*
G01*
X226100000Y-88143750D02*
G75*
G02X225600000Y-87643750I0J500000D01*
G01*
X225600000Y-74643750D02*
G75*
G02X226100000Y-74143750I500000J0D01*
G01*
X239100000Y-74143750D02*
G75*
G02X239600000Y-74643750I0J-500000D01*
G01*
X239600000Y-74643750D02*
X239600000Y-87643750D01*
X226100000Y-88143750D02*
X239100000Y-88143750D01*
X226100000Y-74143750D02*
X239100000Y-74143750D01*
X225600000Y-74643750D02*
X225600000Y-87643750D01*
X247499500Y-69056250D02*
G75*
G02X246999500Y-68556250I0J500000D01*
G01*
X280049500Y-55556250D02*
X280049500Y-68556250D01*
X279549500Y-55056250D02*
G75*
G02X280049500Y-55556250I0J-500000D01*
G01*
X279462500Y-69056250D02*
X279549500Y-69056250D01*
X246999500Y-55556250D02*
G75*
G02X247499500Y-55056250I500000J0D01*
G01*
X246999500Y-55556250D02*
X246999500Y-68556250D01*
X280049500Y-68556250D02*
G75*
G02X279549500Y-69056250I-500000J0D01*
G01*
X247499500Y-69056250D02*
X247586500Y-69056250D01*
X226100000Y-69093750D02*
X239100000Y-69093750D01*
X239600000Y-68593750D02*
G75*
G02X239100000Y-69093750I-500000J0D01*
G01*
X239100000Y-55093750D02*
G75*
G02X239600000Y-55593750I0J-500000D01*
G01*
X225600000Y-55593750D02*
X225600000Y-68593750D01*
X226100000Y-69093750D02*
G75*
G02X225600000Y-68593750I0J500000D01*
G01*
X239600000Y-55593750D02*
X239600000Y-68593750D01*
X226100000Y-55093750D02*
X239100000Y-55093750D01*
X225600000Y-55593750D02*
G75*
G02X226100000Y-55093750I500000J0D01*
G01*
X16050000Y-17493750D02*
X16050000Y-30493750D01*
X62125000Y-14468750D02*
X269725000Y-14468750D01*
X16550000Y-16993750D02*
X29550000Y-16993750D01*
X30050000Y-30493750D02*
G75*
G02X29550000Y-30993750I-500000J0D01*
G01*
X16050000Y-17493750D02*
G75*
G02X16550000Y-16993750I500000J0D01*
G01*
X29550000Y-16993750D02*
G75*
G02X30050000Y-17493750I0J-500000D01*
G01*
X16550000Y-30993750D02*
X29550000Y-30993750D01*
X16550000Y-30993750D02*
G75*
G02X16050000Y-30493750I0J500000D01*
G01*
X290725000Y-14468750D02*
X316075000Y-14468750D01*
X30050000Y-17493750D02*
X30050000Y-30493750D01*
X149900000Y-30993750D02*
G75*
G02X149400000Y-30493750I0J500000D01*
G01*
X111800000Y-30993750D02*
G75*
G02X111300000Y-30493750I0J500000D01*
G01*
X130350000Y-17493750D02*
G75*
G02X130850000Y-16993750I500000J0D01*
G01*
X143850000Y-16993750D02*
G75*
G02X144350000Y-17493750I0J-500000D01*
G01*
X111800000Y-30993750D02*
X124800000Y-30993750D01*
X144350000Y-17493750D02*
X144350000Y-30493750D01*
X92750000Y-30993750D02*
X105750000Y-30993750D01*
X35600000Y-30993750D02*
X48600000Y-30993750D01*
X54150000Y-17493750D02*
G75*
G02X54650000Y-16993750I500000J0D01*
G01*
X68150000Y-17493750D02*
X68150000Y-30493750D01*
X106250000Y-17493750D02*
X106250000Y-30493750D01*
X130850000Y-16993750D02*
X143850000Y-16993750D01*
X130350000Y-17493750D02*
X130350000Y-30493750D01*
X68150000Y-30493750D02*
G75*
G02X67650000Y-30993750I-500000J0D01*
G01*
X54650000Y-30993750D02*
G75*
G02X54150000Y-30493750I0J500000D01*
G01*
X92750000Y-16993750D02*
X105750000Y-16993750D01*
X87200000Y-17493750D02*
X87200000Y-30493750D01*
X162900000Y-16993750D02*
G75*
G02X163400000Y-17493750I0J-500000D01*
G01*
X49100000Y-30493750D02*
G75*
G02X48600000Y-30993750I-500000J0D01*
G01*
X54650000Y-16993750D02*
X67650000Y-16993750D01*
X35100000Y-17493750D02*
G75*
G02X35600000Y-16993750I500000J0D01*
G01*
X144350000Y-30493750D02*
G75*
G02X143850000Y-30993750I-500000J0D01*
G01*
X130850000Y-30993750D02*
X143850000Y-30993750D01*
X35600000Y-16993750D02*
X48600000Y-16993750D01*
X48600000Y-16993750D02*
G75*
G02X49100000Y-17493750I0J-500000D01*
G01*
X35600000Y-30993750D02*
G75*
G02X35100000Y-30493750I0J500000D01*
G01*
X86700000Y-16993750D02*
G75*
G02X87200000Y-17493750I0J-500000D01*
G01*
X106250000Y-30493750D02*
G75*
G02X105750000Y-30993750I-500000J0D01*
G01*
X92250000Y-17493750D02*
X92250000Y-30493750D01*
X125300000Y-30493750D02*
G75*
G02X124800000Y-30993750I-500000J0D01*
G01*
X35100000Y-17493750D02*
X35100000Y-30493750D01*
X87200000Y-30493750D02*
G75*
G02X86700000Y-30993750I-500000J0D01*
G01*
X111300000Y-17493750D02*
G75*
G02X111800000Y-16993750I500000J0D01*
G01*
X111300000Y-17493750D02*
X111300000Y-30493750D01*
X73700000Y-30993750D02*
X86700000Y-30993750D01*
X149900000Y-16993750D02*
X162900000Y-16993750D01*
X73200000Y-17493750D02*
X73200000Y-30493750D01*
X124800000Y-16993750D02*
G75*
G02X125300000Y-17493750I0J-500000D01*
G01*
X163400000Y-30493750D02*
G75*
G02X162900000Y-30993750I-500000J0D01*
G01*
X149900000Y-30993750D02*
X162900000Y-30993750D01*
X105750000Y-16993750D02*
G75*
G02X106250000Y-17493750I0J-500000D01*
G01*
X130850000Y-30993750D02*
G75*
G02X130350000Y-30493750I0J500000D01*
G01*
X73700000Y-16993750D02*
X86700000Y-16993750D01*
X49100000Y-17493750D02*
X49100000Y-30493750D01*
X73200000Y-17493750D02*
G75*
G02X73700000Y-16993750I500000J0D01*
G01*
X67650000Y-16993750D02*
G75*
G02X68150000Y-17493750I0J-500000D01*
G01*
X125300000Y-17493750D02*
X125300000Y-30493750D01*
X54650000Y-30993750D02*
X67650000Y-30993750D01*
X54150000Y-17493750D02*
X54150000Y-30493750D01*
X73700000Y-30993750D02*
G75*
G02X73200000Y-30493750I0J500000D01*
G01*
X92250000Y-17493750D02*
G75*
G02X92750000Y-16993750I500000J0D01*
G01*
X149400000Y-17493750D02*
X149400000Y-30493750D01*
X92750000Y-30993750D02*
G75*
G02X92250000Y-30493750I0J500000D01*
G01*
X111800000Y-16993750D02*
X124800000Y-16993750D01*
X149400000Y-17493750D02*
G75*
G02X149900000Y-16993750I500000J0D01*
G01*
X163400000Y-17493750D02*
X163400000Y-30493750D01*
X168450000Y-17493750D02*
G75*
G02X168950000Y-16993750I500000J0D01*
G01*
X245150000Y-16993750D02*
X258150000Y-16993750D01*
X49100000Y-49543750D02*
G75*
G02X48600000Y-50043750I-500000J0D01*
G01*
X258650000Y-17493750D02*
X258650000Y-30493750D01*
X30050000Y-49543750D02*
G75*
G02X29550000Y-50043750I-500000J0D01*
G01*
X315300000Y-16993750D02*
G75*
G02X315800000Y-17493750I0J-500000D01*
G01*
X315800000Y-17493750D02*
X315800000Y-30493750D01*
X315800000Y-30493750D02*
G75*
G02X315300000Y-30993750I-500000J0D01*
G01*
X302300000Y-30993750D02*
G75*
G02X301800000Y-30493750I0J500000D01*
G01*
X54150000Y-36543750D02*
G75*
G02X54650000Y-36043750I500000J0D01*
G01*
X35100000Y-36543750D02*
X35100000Y-49543750D01*
X302300000Y-30993750D02*
X315300000Y-30993750D01*
X35600000Y-50043750D02*
G75*
G02X35100000Y-49543750I0J500000D01*
G01*
X168950000Y-30993750D02*
G75*
G02X168450000Y-30493750I0J500000D01*
G01*
X201500000Y-30493750D02*
G75*
G02X201000000Y-30993750I-500000J0D01*
G01*
X207050000Y-30993750D02*
X220050000Y-30993750D01*
X16550000Y-50043750D02*
X29550000Y-50043750D01*
X49100000Y-36543750D02*
X49100000Y-49543750D01*
X168950000Y-16993750D02*
X181950000Y-16993750D01*
X181950000Y-16993750D02*
G75*
G02X182450000Y-17493750I0J-500000D01*
G01*
X182450000Y-17493750D02*
X182450000Y-30493750D01*
X220550000Y-30493750D02*
G75*
G02X220050000Y-30993750I-500000J0D01*
G01*
X182450000Y-30493750D02*
G75*
G02X181950000Y-30993750I-500000J0D01*
G01*
X168450000Y-17493750D02*
X168450000Y-30493750D01*
X206550000Y-17493750D02*
G75*
G02X207050000Y-16993750I500000J0D01*
G01*
X220050000Y-16993750D02*
G75*
G02X220550000Y-17493750I0J-500000D01*
G01*
X225600000Y-17493750D02*
G75*
G02X226100000Y-16993750I500000J0D01*
G01*
X244650000Y-17493750D02*
G75*
G02X245150000Y-16993750I500000J0D01*
G01*
X244650000Y-17493750D02*
X244650000Y-30493750D01*
X225600000Y-17493750D02*
X225600000Y-30493750D01*
X258150000Y-16993750D02*
G75*
G02X258650000Y-17493750I0J-500000D01*
G01*
X16050000Y-36543750D02*
X16050000Y-49543750D01*
X301800000Y-17493750D02*
X301800000Y-30493750D01*
X226100000Y-16993750D02*
X239100000Y-16993750D01*
X239600000Y-30493750D02*
G75*
G02X239100000Y-30993750I-500000J0D01*
G01*
X226100000Y-30993750D02*
X239100000Y-30993750D01*
X48600000Y-36043750D02*
G75*
G02X49100000Y-36543750I0J-500000D01*
G01*
X16050000Y-36543750D02*
G75*
G02X16550000Y-36043750I500000J0D01*
G01*
X168950000Y-30993750D02*
X181950000Y-30993750D01*
X201500000Y-17493750D02*
X201500000Y-30493750D01*
X245150000Y-30993750D02*
G75*
G02X244650000Y-30493750I0J500000D01*
G01*
X35600000Y-50043750D02*
X48600000Y-50043750D01*
X187500000Y-17493750D02*
G75*
G02X188000000Y-16993750I500000J0D01*
G01*
X16550000Y-36043750D02*
X29550000Y-36043750D01*
X35100000Y-36543750D02*
G75*
G02X35600000Y-36043750I500000J0D01*
G01*
X188000000Y-16993750D02*
X201000000Y-16993750D01*
X239100000Y-16993750D02*
G75*
G02X239600000Y-17493750I0J-500000D01*
G01*
X301800000Y-17493750D02*
G75*
G02X302300000Y-16993750I500000J0D01*
G01*
X302300000Y-16993750D02*
X315300000Y-16993750D01*
X29550000Y-36043750D02*
G75*
G02X30050000Y-36543750I0J-500000D01*
G01*
X201000000Y-16993750D02*
G75*
G02X201500000Y-17493750I0J-500000D01*
G01*
X239600000Y-17493750D02*
X239600000Y-30493750D01*
X187500000Y-17493750D02*
X187500000Y-30493750D01*
X188000000Y-30993750D02*
X201000000Y-30993750D01*
X188000000Y-30993750D02*
G75*
G02X187500000Y-30493750I0J500000D01*
G01*
X207050000Y-16993750D02*
X220050000Y-16993750D01*
X245150000Y-30993750D02*
X258150000Y-30993750D01*
X30050000Y-36543750D02*
X30050000Y-49543750D01*
X220550000Y-17493750D02*
X220550000Y-30493750D01*
X207050000Y-30993750D02*
G75*
G02X206550000Y-30493750I0J500000D01*
G01*
X258650000Y-30493750D02*
G75*
G02X258150000Y-30993750I-500000J0D01*
G01*
X16550000Y-50043750D02*
G75*
G02X16050000Y-49543750I0J500000D01*
G01*
X35600000Y-36043750D02*
X48600000Y-36043750D01*
X206550000Y-17493750D02*
X206550000Y-30493750D01*
X226100000Y-30993750D02*
G75*
G02X225600000Y-30493750I0J500000D01*
G01*
X206550000Y-36543750D02*
G75*
G02X207050000Y-36043750I500000J0D01*
G01*
X143850000Y-36043750D02*
G75*
G02X144350000Y-36543750I0J-500000D01*
G01*
X92750000Y-50043750D02*
X105750000Y-50043750D01*
X92750000Y-50043750D02*
G75*
G02X92250000Y-49543750I0J500000D01*
G01*
X149400000Y-36543750D02*
X149400000Y-49543750D01*
X187500000Y-36543750D02*
G75*
G02X188000000Y-36043750I500000J0D01*
G01*
X201500000Y-49543750D02*
G75*
G02X201000000Y-50043750I-500000J0D01*
G01*
X168950000Y-36043750D02*
X181950000Y-36043750D01*
X130850000Y-50043750D02*
G75*
G02X130350000Y-49543750I0J500000D01*
G01*
X130850000Y-50043750D02*
X143850000Y-50043750D01*
X201500000Y-36543750D02*
X201500000Y-49543750D01*
X144350000Y-49543750D02*
G75*
G02X143850000Y-50043750I-500000J0D01*
G01*
X54650000Y-36043750D02*
X67650000Y-36043750D01*
X67650000Y-36043750D02*
G75*
G02X68150000Y-36543750I0J-500000D01*
G01*
X54650000Y-50043750D02*
G75*
G02X54150000Y-49543750I0J500000D01*
G01*
X163400000Y-49543750D02*
G75*
G02X162900000Y-50043750I-500000J0D01*
G01*
X130850000Y-36043750D02*
X143850000Y-36043750D01*
X68150000Y-36543750D02*
X68150000Y-49543750D01*
X111300000Y-36543750D02*
G75*
G02X111800000Y-36043750I500000J0D01*
G01*
X188000000Y-50043750D02*
G75*
G02X187500000Y-49543750I0J500000D01*
G01*
X73200000Y-36543750D02*
G75*
G02X73700000Y-36043750I500000J0D01*
G01*
X87200000Y-49543750D02*
G75*
G02X86700000Y-50043750I-500000J0D01*
G01*
X73700000Y-50043750D02*
X86700000Y-50043750D01*
X73700000Y-50043750D02*
G75*
G02X73200000Y-49543750I0J500000D01*
G01*
X92250000Y-36543750D02*
G75*
G02X92750000Y-36043750I500000J0D01*
G01*
X111800000Y-50043750D02*
G75*
G02X111300000Y-49543750I0J500000D01*
G01*
X149900000Y-50043750D02*
G75*
G02X149400000Y-49543750I0J500000D01*
G01*
X149900000Y-36043750D02*
X162900000Y-36043750D01*
X92750000Y-36043750D02*
X105750000Y-36043750D01*
X106250000Y-36543750D02*
X106250000Y-49543750D01*
X168950000Y-50043750D02*
G75*
G02X168450000Y-49543750I0J500000D01*
G01*
X130350000Y-36543750D02*
G75*
G02X130850000Y-36043750I500000J0D01*
G01*
X182450000Y-49543750D02*
G75*
G02X181950000Y-50043750I-500000J0D01*
G01*
X181950000Y-36043750D02*
G75*
G02X182450000Y-36543750I0J-500000D01*
G01*
X188000000Y-36043750D02*
X201000000Y-36043750D01*
X182450000Y-36543750D02*
X182450000Y-49543750D01*
X130350000Y-36543750D02*
X130350000Y-49543750D01*
X149400000Y-36543750D02*
G75*
G02X149900000Y-36043750I500000J0D01*
G01*
X168450000Y-36543750D02*
X168450000Y-49543750D01*
X68150000Y-49543750D02*
G75*
G02X67650000Y-50043750I-500000J0D01*
G01*
X144350000Y-36543750D02*
X144350000Y-49543750D01*
X54650000Y-50043750D02*
X67650000Y-50043750D01*
X54150000Y-36543750D02*
X54150000Y-49543750D01*
X111800000Y-36043750D02*
X124800000Y-36043750D01*
X187500000Y-36543750D02*
X187500000Y-49543750D01*
X73700000Y-36043750D02*
X86700000Y-36043750D01*
X163400000Y-36543750D02*
X163400000Y-49543750D01*
X86700000Y-36043750D02*
G75*
G02X87200000Y-36543750I0J-500000D01*
G01*
X87200000Y-36543750D02*
X87200000Y-49543750D01*
X73200000Y-36543750D02*
X73200000Y-49543750D01*
X105750000Y-36043750D02*
G75*
G02X106250000Y-36543750I0J-500000D01*
G01*
X125300000Y-49543750D02*
G75*
G02X124800000Y-50043750I-500000J0D01*
G01*
X111800000Y-50043750D02*
X124800000Y-50043750D01*
X125300000Y-36543750D02*
X125300000Y-49543750D01*
X168950000Y-50043750D02*
X181950000Y-50043750D01*
X106250000Y-49543750D02*
G75*
G02X105750000Y-50043750I-500000J0D01*
G01*
X92250000Y-36543750D02*
X92250000Y-49543750D01*
X168450000Y-36543750D02*
G75*
G02X168950000Y-36043750I500000J0D01*
G01*
X188000000Y-50043750D02*
X201000000Y-50043750D01*
X124800000Y-36043750D02*
G75*
G02X125300000Y-36543750I0J-500000D01*
G01*
X111300000Y-36543750D02*
X111300000Y-49543750D01*
X149900000Y-50043750D02*
X162900000Y-50043750D01*
X201000000Y-36043750D02*
G75*
G02X201500000Y-36543750I0J-500000D01*
G01*
X162900000Y-36043750D02*
G75*
G02X163400000Y-36543750I0J-500000D01*
G01*
X163400000Y-55593750D02*
X163400000Y-68593750D01*
X111300000Y-55593750D02*
X111300000Y-68593750D01*
X168950000Y-55093750D02*
X181950000Y-55093750D01*
X188000000Y-55093750D02*
X201000000Y-55093750D01*
X163400000Y-68593750D02*
G75*
G02X162900000Y-69093750I-500000J0D01*
G01*
X168450000Y-55593750D02*
G75*
G02X168950000Y-55093750I500000J0D01*
G01*
X187500000Y-55593750D02*
X187500000Y-68593750D01*
X188000000Y-69093750D02*
G75*
G02X187500000Y-68593750I0J500000D01*
G01*
X73700000Y-55093750D02*
X86700000Y-55093750D01*
X86700000Y-55093750D02*
G75*
G02X87200000Y-55593750I0J-500000D01*
G01*
X73700000Y-69093750D02*
X86700000Y-69093750D01*
X111800000Y-69093750D02*
X124800000Y-69093750D01*
X149900000Y-69093750D02*
G75*
G02X149400000Y-68593750I0J500000D01*
G01*
X188000000Y-69093750D02*
X201000000Y-69093750D01*
X111800000Y-55093750D02*
X124800000Y-55093750D01*
X182450000Y-68593750D02*
G75*
G02X181950000Y-69093750I-500000J0D01*
G01*
X87200000Y-55593750D02*
X87200000Y-68593750D01*
X87200000Y-68593750D02*
G75*
G02X86700000Y-69093750I-500000J0D01*
G01*
X201500000Y-68593750D02*
G75*
G02X201000000Y-69093750I-500000J0D01*
G01*
X92250000Y-55593750D02*
G75*
G02X92750000Y-55093750I500000J0D01*
G01*
X92750000Y-69093750D02*
X105750000Y-69093750D01*
X143850000Y-55093750D02*
G75*
G02X144350000Y-55593750I0J-500000D01*
G01*
X73700000Y-69093750D02*
G75*
G02X73200000Y-68593750I0J500000D01*
G01*
X73200000Y-55593750D02*
X73200000Y-68593750D01*
X111300000Y-55593750D02*
G75*
G02X111800000Y-55093750I500000J0D01*
G01*
X125300000Y-55593750D02*
X125300000Y-68593750D01*
X144350000Y-55593750D02*
X144350000Y-68593750D01*
X201000000Y-55093750D02*
G75*
G02X201500000Y-55593750I0J-500000D01*
G01*
X162900000Y-55093750D02*
G75*
G02X163400000Y-55593750I0J-500000D01*
G01*
X149400000Y-55593750D02*
X149400000Y-68593750D01*
X207050000Y-55093750D02*
X220050000Y-55093750D01*
X187500000Y-55593750D02*
G75*
G02X188000000Y-55093750I500000J0D01*
G01*
X206550000Y-55593750D02*
G75*
G02X207050000Y-55093750I500000J0D01*
G01*
X92750000Y-55093750D02*
X105750000Y-55093750D01*
X182450000Y-55593750D02*
X182450000Y-68593750D01*
X106250000Y-55593750D02*
X106250000Y-68593750D01*
X105750000Y-55093750D02*
G75*
G02X106250000Y-55593750I0J-500000D01*
G01*
X106250000Y-68593750D02*
G75*
G02X105750000Y-69093750I-500000J0D01*
G01*
X92750000Y-69093750D02*
G75*
G02X92250000Y-68593750I0J500000D01*
G01*
X92250000Y-55593750D02*
X92250000Y-68593750D01*
X124800000Y-55093750D02*
G75*
G02X125300000Y-55593750I0J-500000D01*
G01*
X144350000Y-68593750D02*
G75*
G02X143850000Y-69093750I-500000J0D01*
G01*
X130850000Y-69093750D02*
X143850000Y-69093750D01*
X149900000Y-55093750D02*
X162900000Y-55093750D01*
X149900000Y-69093750D02*
X162900000Y-69093750D01*
X181950000Y-55093750D02*
G75*
G02X182450000Y-55593750I0J-500000D01*
G01*
X168450000Y-55593750D02*
X168450000Y-68593750D01*
X168950000Y-69093750D02*
X181950000Y-69093750D01*
X130850000Y-55093750D02*
X143850000Y-55093750D01*
X125300000Y-68593750D02*
G75*
G02X124800000Y-69093750I-500000J0D01*
G01*
X130350000Y-55593750D02*
X130350000Y-68593750D01*
X168950000Y-69093750D02*
G75*
G02X168450000Y-68593750I0J500000D01*
G01*
X111800000Y-69093750D02*
G75*
G02X111300000Y-68593750I0J500000D01*
G01*
X130350000Y-55593750D02*
G75*
G02X130850000Y-55093750I500000J0D01*
G01*
X130850000Y-69093750D02*
G75*
G02X130350000Y-68593750I0J500000D01*
G01*
X201500000Y-55593750D02*
X201500000Y-68593750D01*
X149400000Y-55593750D02*
G75*
G02X149900000Y-55093750I500000J0D01*
G01*
X308656250Y-68593750D02*
G75*
G02X308156250Y-69093750I-500000J0D01*
G01*
X29550000Y-74143750D02*
G75*
G02X30050000Y-74643750I0J-500000D01*
G01*
X16550000Y-88143750D02*
G75*
G02X16050000Y-87643750I0J500000D01*
G01*
X294656250Y-55593750D02*
X294656250Y-68593750D01*
X16550000Y-88143750D02*
X29550000Y-88143750D01*
X295156250Y-69093750D02*
G75*
G02X294656250Y-68593750I0J500000D01*
G01*
X220050000Y-55093750D02*
G75*
G02X220550000Y-55593750I0J-500000D01*
G01*
X220550000Y-55593750D02*
X220550000Y-68593750D01*
X308656250Y-55593750D02*
X308656250Y-68593750D01*
X220550000Y-68593750D02*
G75*
G02X220050000Y-69093750I-500000J0D01*
G01*
X207050000Y-69093750D02*
X220050000Y-69093750D01*
X35100000Y-74643750D02*
G75*
G02X35600000Y-74143750I500000J0D01*
G01*
X207050000Y-69093750D02*
G75*
G02X206550000Y-68593750I0J500000D01*
G01*
X206550000Y-55593750D02*
X206550000Y-68593750D01*
X16050000Y-74643750D02*
G75*
G02X16550000Y-74143750I500000J0D01*
G01*
X308156250Y-55093750D02*
G75*
G02X308656250Y-55593750I0J-500000D01*
G01*
X30050000Y-74643750D02*
X30050000Y-87643750D01*
X16550000Y-74143750D02*
X29550000Y-74143750D01*
X295156250Y-69093750D02*
X308156250Y-69093750D01*
X35600000Y-74143750D02*
X48600000Y-74143750D01*
X294656250Y-55593750D02*
G75*
G02X295156250Y-55093750I500000J0D01*
G01*
X16050000Y-74643750D02*
X16050000Y-87643750D01*
X295156250Y-55093750D02*
X308156250Y-55093750D01*
X30050000Y-87643750D02*
G75*
G02X29550000Y-88143750I-500000J0D01*
G01*
X239100000Y-36043750D02*
G75*
G02X239600000Y-36543750I0J-500000D01*
G01*
X245150000Y-50043750D02*
G75*
G02X244650000Y-49543750I0J500000D01*
G01*
X310537500Y-36043750D02*
G75*
G02X311037500Y-36543750I0J-500000D01*
G01*
X268962500Y-50043750D02*
X281962500Y-50043750D01*
X226100000Y-50043750D02*
G75*
G02X225600000Y-49543750I0J500000D01*
G01*
X282462500Y-36543750D02*
X282462500Y-49543750D01*
X258650000Y-36543750D02*
X258650000Y-49543750D01*
X258650000Y-49543750D02*
G75*
G02X258150000Y-50043750I-500000J0D01*
G01*
X16550000Y-55093750D02*
X29550000Y-55093750D01*
X35100000Y-55593750D02*
G75*
G02X35600000Y-55093750I500000J0D01*
G01*
X54650000Y-69093750D02*
G75*
G02X54150000Y-68593750I0J500000D01*
G01*
X244650000Y-36543750D02*
G75*
G02X245150000Y-36043750I500000J0D01*
G01*
X48600000Y-55093750D02*
G75*
G02X49100000Y-55593750I0J-500000D01*
G01*
X297537500Y-50043750D02*
X310537500Y-50043750D01*
X244650000Y-36543750D02*
X244650000Y-49543750D01*
X35600000Y-69093750D02*
X48600000Y-69093750D01*
X258150000Y-36043750D02*
G75*
G02X258650000Y-36543750I0J-500000D01*
G01*
X297037500Y-36543750D02*
X297037500Y-49543750D01*
X35600000Y-55093750D02*
X48600000Y-55093750D01*
X67650000Y-55093750D02*
G75*
G02X68150000Y-55593750I0J-500000D01*
G01*
X281962500Y-36043750D02*
G75*
G02X282462500Y-36543750I0J-500000D01*
G01*
X49100000Y-55593750D02*
X49100000Y-68593750D01*
X245150000Y-50043750D02*
X258150000Y-50043750D01*
X68150000Y-68593750D02*
G75*
G02X67650000Y-69093750I-500000J0D01*
G01*
X207050000Y-36043750D02*
X220050000Y-36043750D01*
X207050000Y-50043750D02*
G75*
G02X206550000Y-49543750I0J500000D01*
G01*
X239600000Y-49543750D02*
G75*
G02X239100000Y-50043750I-500000J0D01*
G01*
X239600000Y-36543750D02*
X239600000Y-49543750D01*
X220050000Y-36043750D02*
G75*
G02X220550000Y-36543750I0J-500000D01*
G01*
X226100000Y-50043750D02*
X239100000Y-50043750D01*
X16050000Y-55593750D02*
G75*
G02X16550000Y-55093750I500000J0D01*
G01*
X220550000Y-36543750D02*
X220550000Y-49543750D01*
X220550000Y-49543750D02*
G75*
G02X220050000Y-50043750I-500000J0D01*
G01*
X54650000Y-55093750D02*
X67650000Y-55093750D01*
X297537500Y-50043750D02*
G75*
G02X297037500Y-49543750I0J500000D01*
G01*
X225600000Y-36543750D02*
X225600000Y-49543750D01*
X16550000Y-69093750D02*
G75*
G02X16050000Y-68593750I0J500000D01*
G01*
X207050000Y-50043750D02*
X220050000Y-50043750D01*
X225600000Y-36543750D02*
G75*
G02X226100000Y-36043750I500000J0D01*
G01*
X245150000Y-36043750D02*
X258150000Y-36043750D01*
X297037500Y-36543750D02*
G75*
G02X297537500Y-36043750I500000J0D01*
G01*
X297537500Y-36043750D02*
X310537500Y-36043750D01*
X268962500Y-36043750D02*
X281962500Y-36043750D01*
X30050000Y-55593750D02*
X30050000Y-68593750D01*
X54150000Y-55593750D02*
G75*
G02X54650000Y-55093750I500000J0D01*
G01*
X311037500Y-36543750D02*
X311037500Y-49543750D01*
X30050000Y-68593750D02*
G75*
G02X29550000Y-69093750I-500000J0D01*
G01*
X35600000Y-69093750D02*
G75*
G02X35100000Y-68593750I0J500000D01*
G01*
X73200000Y-55593750D02*
G75*
G02X73700000Y-55093750I500000J0D01*
G01*
X54650000Y-69093750D02*
X67650000Y-69093750D01*
X282462500Y-49543750D02*
G75*
G02X281962500Y-50043750I-500000J0D01*
G01*
X311037500Y-49543750D02*
G75*
G02X310537500Y-50043750I-500000J0D01*
G01*
X268962500Y-50043750D02*
G75*
G02X268462500Y-49543750I0J500000D01*
G01*
X16550000Y-69093750D02*
X29550000Y-69093750D01*
X16050000Y-55593750D02*
X16050000Y-68593750D01*
X49100000Y-68593750D02*
G75*
G02X48600000Y-69093750I-500000J0D01*
G01*
X54150000Y-55593750D02*
X54150000Y-68593750D01*
X68150000Y-55593750D02*
X68150000Y-68593750D01*
X35100000Y-55593750D02*
X35100000Y-68593750D01*
X268462500Y-36543750D02*
X268462500Y-49543750D01*
X29550000Y-55093750D02*
G75*
G02X30050000Y-55593750I0J-500000D01*
G01*
X206550000Y-36543750D02*
X206550000Y-49543750D01*
X226100000Y-36043750D02*
X239100000Y-36043750D01*
X268462500Y-36543750D02*
G75*
G02X268962500Y-36043750I500000J0D01*
G01*
X271787000Y-31493750D02*
G75*
G02X272287000Y-30993750I500000J0D01*
G01*
X296163000Y-30993750D02*
X296250000Y-30993750D01*
X289163000Y-32993750D02*
G75*
G02X288663000Y-32493750I0J500000D01*
G01*
X288163000Y-30993750D02*
G75*
G02X288663000Y-31493750I0J-500000D01*
G01*
X289163000Y-32993750D02*
X295163000Y-32993750D01*
X265287000Y-32993750D02*
X271287000Y-32993750D01*
X265287000Y-32993750D02*
G75*
G02X264787000Y-32493750I0J500000D01*
G01*
X295663000Y-31493750D02*
G75*
G02X296163000Y-30993750I500000J0D01*
G01*
X295663000Y-32493750D02*
G75*
G02X295163000Y-32993750I-500000J0D01*
G01*
X272287000Y-30993750D02*
X288163000Y-30993750D01*
X271787000Y-32493750D02*
G75*
G02X271287000Y-32993750I-500000J0D01*
G01*
X264787000Y-31493750D02*
X264787000Y-32493750D01*
X295663000Y-31493750D02*
X295663000Y-32493750D01*
X271787000Y-31493750D02*
X271787000Y-32493750D01*
X288663000Y-31493750D02*
X288663000Y-32493750D01*
X15775000Y-109718750D02*
G75*
G02X13525000Y-107468750I0J2250000D01*
G01*
X318325000Y-107468750D02*
G75*
G02X316075000Y-109718750I-2250000J0D01*
G01*
X13525000Y-16718750D02*
X13525000Y-107468750D01*
X261175000Y-91918750D02*
X261175000Y-107468750D01*
X264287000Y-30993750D02*
G75*
G02X264787000Y-31493750I0J-500000D01*
G01*
X264200000Y-30993750D02*
X264287000Y-30993750D01*
X13525000Y-16718750D02*
G75*
G02X15775000Y-14468750I2250000J0D01*
G01*
X264200000Y-30993750D02*
G75*
G02X263700000Y-30493750I0J500000D01*
G01*
X296250000Y-16993750D02*
G75*
G02X296750000Y-17493750I0J-500000D01*
G01*
X296750000Y-30493750D02*
G75*
G02X296250000Y-30993750I-500000J0D01*
G01*
X263425000Y-109718750D02*
X316075000Y-109718750D01*
X251650000Y-107468750D02*
X251650000Y-91918750D01*
X259925000Y-90668750D02*
G75*
G02X261175000Y-91918750I0J-1250000D01*
G01*
X318325000Y-16718750D02*
X318325000Y-107468750D01*
X252900000Y-90668750D02*
X259925000Y-90668750D01*
X263700000Y-17493750D02*
X263700000Y-30493750D01*
X263700000Y-17493750D02*
G75*
G02X264200000Y-16993750I500000J0D01*
G01*
X263425000Y-109718750D02*
G75*
G02X261175000Y-107468750I0J2250000D01*
G01*
X264200000Y-16993750D02*
X296250000Y-16993750D01*
X296750000Y-17493750D02*
X296750000Y-30493750D01*
X15775000Y-14468750D02*
X41125000Y-14468750D01*
X15775000Y-109718750D02*
X249400000Y-109718750D01*
X251650000Y-107468750D02*
G75*
G02X249400000Y-109718750I-2250000J0D01*
G01*
X251650000Y-91918750D02*
G75*
G02X252900000Y-90668750I1250000J0D01*
G01*
X316075000Y-14468750D02*
G75*
G02X318325000Y-16718750I0J-2250000D01*
G01*
X282750000Y-74643750D02*
X282750000Y-87643750D01*
X302300000Y-88143750D02*
G75*
G02X301800000Y-87643750I0J500000D01*
G01*
X220550000Y-87643750D02*
G75*
G02X220050000Y-88143750I-500000J0D01*
G01*
X201000000Y-74143750D02*
G75*
G02X201500000Y-74643750I0J-500000D01*
G01*
X283250000Y-88143750D02*
X296250000Y-88143750D01*
X201500000Y-74643750D02*
X201500000Y-87643750D01*
X201500000Y-87643750D02*
G75*
G02X201000000Y-88143750I-500000J0D01*
G01*
X188000000Y-88143750D02*
X201000000Y-88143750D01*
X296750000Y-87643750D02*
G75*
G02X296250000Y-88143750I-500000J0D01*
G01*
X187500000Y-74643750D02*
X187500000Y-87643750D01*
X220550000Y-74643750D02*
X220550000Y-87643750D01*
X282750000Y-74643750D02*
G75*
G02X283250000Y-74143750I500000J0D01*
G01*
X296250000Y-74143750D02*
G75*
G02X296750000Y-74643750I0J-500000D01*
G01*
X301800000Y-74643750D02*
G75*
G02X302300000Y-74143750I500000J0D01*
G01*
X302300000Y-74143750D02*
X315300000Y-74143750D01*
X301800000Y-74643750D02*
X301800000Y-87643750D01*
X315800000Y-87643750D02*
G75*
G02X315300000Y-88143750I-500000J0D01*
G01*
X302300000Y-88143750D02*
X315300000Y-88143750D01*
X220050000Y-74143750D02*
G75*
G02X220550000Y-74643750I0J-500000D01*
G01*
X207050000Y-88143750D02*
X220050000Y-88143750D01*
X206550000Y-74643750D02*
X206550000Y-87643750D01*
X315300000Y-74143750D02*
G75*
G02X315800000Y-74643750I0J-500000D01*
G01*
X315800000Y-74643750D02*
X315800000Y-87643750D01*
X188000000Y-88143750D02*
G75*
G02X187500000Y-87643750I0J500000D01*
G01*
X207050000Y-88143750D02*
G75*
G02X206550000Y-87643750I0J500000D01*
G01*
X206550000Y-74643750D02*
G75*
G02X207050000Y-74143750I500000J0D01*
G01*
X207050000Y-74143750D02*
X220050000Y-74143750D01*
X296750000Y-74643750D02*
X296750000Y-87643750D01*
X283250000Y-74143750D02*
X296250000Y-74143750D01*
X283250000Y-88143750D02*
G75*
G02X282750000Y-87643750I0J500000D01*
G01*
X283250000Y-107193750D02*
G75*
G02X282750000Y-106693750I0J500000D01*
G01*
X315300000Y-93193750D02*
G75*
G02X315800000Y-93693750I0J-500000D01*
G01*
X283250000Y-107193750D02*
X296250000Y-107193750D01*
X302300000Y-93193750D02*
X315300000Y-93193750D01*
X301800000Y-93693750D02*
G75*
G02X302300000Y-93193750I500000J0D01*
G01*
X263700000Y-93693750D02*
G75*
G02X264200000Y-93193750I500000J0D01*
G01*
X315800000Y-106693750D02*
G75*
G02X315300000Y-107193750I-500000J0D01*
G01*
X302300000Y-107193750D02*
G75*
G02X301800000Y-106693750I0J500000D01*
G01*
X282750000Y-93693750D02*
G75*
G02X283250000Y-93193750I500000J0D01*
G01*
X277700000Y-106693750D02*
G75*
G02X277200000Y-107193750I-500000J0D01*
G01*
X264200000Y-107193750D02*
G75*
G02X263700000Y-106693750I0J500000D01*
G01*
X264200000Y-107193750D02*
X277200000Y-107193750D01*
X296750000Y-93693750D02*
X296750000Y-106693750D01*
X283250000Y-93193750D02*
X296250000Y-93193750D01*
X315800000Y-93693750D02*
X315800000Y-106693750D01*
X302300000Y-107193750D02*
X315300000Y-107193750D01*
X301800000Y-93693750D02*
X301800000Y-106693750D01*
X263700000Y-93693750D02*
X263700000Y-106693750D01*
X264200000Y-93193750D02*
X277200000Y-93193750D01*
X277200000Y-93193750D02*
G75*
G02X277700000Y-93693750I0J-500000D01*
G01*
X277700000Y-93693750D02*
X277700000Y-106693750D01*
X282750000Y-93693750D02*
X282750000Y-106693750D01*
X296250000Y-93193750D02*
G75*
G02X296750000Y-93693750I0J-500000D01*
G01*
X296750000Y-106693750D02*
G75*
G02X296250000Y-107193750I-500000J0D01*
G01*
X182450000Y-74643750D02*
X182450000Y-87643750D01*
X168950000Y-88143750D02*
G75*
G02X168450000Y-87643750I0J500000D01*
G01*
X106250000Y-87643750D02*
G75*
G02X105750000Y-88143750I-500000J0D01*
G01*
X111800000Y-88143750D02*
G75*
G02X111300000Y-87643750I0J500000D01*
G01*
X130850000Y-88143750D02*
G75*
G02X130350000Y-87643750I0J500000D01*
G01*
X130850000Y-88143750D02*
X143850000Y-88143750D01*
X149400000Y-74643750D02*
G75*
G02X149900000Y-74143750I500000J0D01*
G01*
X162900000Y-74143750D02*
G75*
G02X163400000Y-74643750I0J-500000D01*
G01*
X54650000Y-74143750D02*
X67650000Y-74143750D01*
X163400000Y-74643750D02*
X163400000Y-87643750D01*
X73700000Y-88143750D02*
X86700000Y-88143750D01*
X68150000Y-87643750D02*
G75*
G02X67650000Y-88143750I-500000J0D01*
G01*
X73200000Y-74643750D02*
G75*
G02X73700000Y-74143750I500000J0D01*
G01*
X92250000Y-74643750D02*
X92250000Y-87643750D01*
X111800000Y-88143750D02*
X124800000Y-88143750D01*
X92750000Y-74143750D02*
X105750000Y-74143750D01*
X149900000Y-74143750D02*
X162900000Y-74143750D01*
X149400000Y-74643750D02*
X149400000Y-87643750D01*
X111800000Y-74143750D02*
X124800000Y-74143750D01*
X86700000Y-74143750D02*
G75*
G02X87200000Y-74643750I0J-500000D01*
G01*
X125300000Y-87643750D02*
G75*
G02X124800000Y-88143750I-500000J0D01*
G01*
X181950000Y-74143750D02*
G75*
G02X182450000Y-74643750I0J-500000D01*
G01*
X87200000Y-87643750D02*
G75*
G02X86700000Y-88143750I-500000J0D01*
G01*
X73200000Y-74643750D02*
X73200000Y-87643750D01*
X54150000Y-74643750D02*
G75*
G02X54650000Y-74143750I500000J0D01*
G01*
X54650000Y-88143750D02*
G75*
G02X54150000Y-87643750I0J500000D01*
G01*
X163400000Y-87643750D02*
G75*
G02X162900000Y-88143750I-500000J0D01*
G01*
X54650000Y-88143750D02*
X67650000Y-88143750D01*
X149900000Y-88143750D02*
X162900000Y-88143750D01*
X54150000Y-74643750D02*
X54150000Y-87643750D01*
X48600000Y-74143750D02*
G75*
G02X49100000Y-74643750I0J-500000D01*
G01*
X49100000Y-74643750D02*
X49100000Y-87643750D01*
X49100000Y-87643750D02*
G75*
G02X48600000Y-88143750I-500000J0D01*
G01*
X35600000Y-88143750D02*
X48600000Y-88143750D01*
X111300000Y-74643750D02*
G75*
G02X111800000Y-74143750I500000J0D01*
G01*
X144350000Y-87643750D02*
G75*
G02X143850000Y-88143750I-500000J0D01*
G01*
X73700000Y-74143750D02*
X86700000Y-74143750D01*
X111300000Y-74643750D02*
X111300000Y-87643750D01*
X35600000Y-88143750D02*
G75*
G02X35100000Y-87643750I0J500000D01*
G01*
X130350000Y-74643750D02*
G75*
G02X130850000Y-74143750I500000J0D01*
G01*
X130350000Y-74643750D02*
X130350000Y-87643750D01*
X168950000Y-74143750D02*
X181950000Y-74143750D01*
X67650000Y-74143750D02*
G75*
G02X68150000Y-74643750I0J-500000D01*
G01*
X125300000Y-74643750D02*
X125300000Y-87643750D01*
X182450000Y-87643750D02*
G75*
G02X181950000Y-88143750I-500000J0D01*
G01*
X168950000Y-88143750D02*
X181950000Y-88143750D01*
X143850000Y-74143750D02*
G75*
G02X144350000Y-74643750I0J-500000D01*
G01*
X92750000Y-88143750D02*
X105750000Y-88143750D01*
X105750000Y-74143750D02*
G75*
G02X106250000Y-74643750I0J-500000D01*
G01*
X188000000Y-74143750D02*
X201000000Y-74143750D01*
X149900000Y-88143750D02*
G75*
G02X149400000Y-87643750I0J500000D01*
G01*
X35100000Y-74643750D02*
X35100000Y-87643750D01*
X106250000Y-74643750D02*
X106250000Y-87643750D01*
X92750000Y-88143750D02*
G75*
G02X92250000Y-87643750I0J500000D01*
G01*
X87200000Y-74643750D02*
X87200000Y-87643750D01*
X144350000Y-74643750D02*
X144350000Y-87643750D01*
X68150000Y-74643750D02*
X68150000Y-87643750D01*
X73700000Y-88143750D02*
G75*
G02X73200000Y-87643750I0J500000D01*
G01*
X92250000Y-74643750D02*
G75*
G02X92750000Y-74143750I500000J0D01*
G01*
X168450000Y-74643750D02*
X168450000Y-87643750D01*
X124800000Y-74143750D02*
G75*
G02X125300000Y-74643750I0J-500000D01*
G01*
X130850000Y-74143750D02*
X143850000Y-74143750D01*
X168450000Y-74643750D02*
G75*
G02X168950000Y-74143750I500000J0D01*
G01*
X187500000Y-74643750D02*
G75*
G02X188000000Y-74143750I500000J0D01*
G01*
M02*
