G04 #@! TF.GenerationSoftware,KiCad,Pcbnew,(5.1.4)-1*
G04 #@! TF.CreationDate,2022-05-27T22:51:18-07:00*
G04 #@! TF.ProjectId,bakeneko65ortho,62616b65-6e65-46b6-9f36-356f7274686f,rev?*
G04 #@! TF.SameCoordinates,Original*
G04 #@! TF.FileFunction,Legend,Top*
G04 #@! TF.FilePolarity,Positive*
%FSLAX46Y46*%
G04 Gerber Fmt 4.6, Leading zero omitted, Abs format (unit mm)*
G04 Created by KiCad (PCBNEW (5.1.4)-1) date 2022-05-27 22:51:18*
%MOMM*%
%LPD*%
G04 APERTURE LIST*
%ADD10C,4.089800*%
%ADD11C,1.852000*%
%ADD12C,3.150000*%
%ADD13R,1.802000X1.802000*%
%ADD14O,1.802000X1.802000*%
G04 APERTURE END LIST*
%LPC*%
D10*
X244475000Y-61118750D03*
D11*
X239395000Y-61118750D03*
X249555000Y-61118750D03*
D12*
X232568750Y-68103750D03*
X256381250Y-68103750D03*
D10*
X232568750Y-52863750D03*
X256381250Y-52863750D03*
X242093750Y-80168750D03*
D11*
X237013750Y-80168750D03*
X247173750Y-80168750D03*
D12*
X230187500Y-87153750D03*
X254000000Y-87153750D03*
D10*
X230187500Y-71913750D03*
X254000000Y-71913750D03*
D13*
X274383500Y-36004500D03*
D14*
X271843500Y-36004500D03*
X274383500Y-38544500D03*
X271843500Y-38544500D03*
X274383500Y-41084500D03*
X271843500Y-41084500D03*
D10*
X256381250Y-42068750D03*
D11*
X251301250Y-42068750D03*
X261461250Y-42068750D03*
D10*
X282575000Y-61118750D03*
D11*
X277495000Y-61118750D03*
X287655000Y-61118750D03*
D10*
X284956250Y-42068750D03*
D11*
X279876250Y-42068750D03*
X290036250Y-42068750D03*
D10*
X23018750Y-23018750D03*
D11*
X17938750Y-23018750D03*
X28098750Y-23018750D03*
D10*
X289718750Y-99218750D03*
D11*
X284638750Y-99218750D03*
X294798750Y-99218750D03*
D10*
X270668750Y-99218750D03*
D11*
X265588750Y-99218750D03*
X275748750Y-99218750D03*
D10*
X251618750Y-99218750D03*
D11*
X246538750Y-99218750D03*
X256698750Y-99218750D03*
D10*
X220662500Y-99218750D03*
D11*
X215582500Y-99218750D03*
X225742500Y-99218750D03*
D10*
X199231250Y-99218750D03*
D11*
X194151250Y-99218750D03*
X204311250Y-99218750D03*
D10*
X177800000Y-99218750D03*
D11*
X172720000Y-99218750D03*
X182880000Y-99218750D03*
D10*
X156368750Y-99218750D03*
D11*
X151288750Y-99218750D03*
X161448750Y-99218750D03*
D10*
X137318750Y-99218750D03*
D11*
X132238750Y-99218750D03*
X142398750Y-99218750D03*
D10*
X108743750Y-99218750D03*
D11*
X103663750Y-99218750D03*
X113823750Y-99218750D03*
D12*
X96837500Y-106203750D03*
X120650000Y-106203750D03*
D10*
X96837500Y-90963750D03*
X120650000Y-90963750D03*
X80168750Y-99218750D03*
D11*
X75088750Y-99218750D03*
X85248750Y-99218750D03*
D10*
X61118750Y-99218750D03*
D11*
X56038750Y-99218750D03*
X66198750Y-99218750D03*
D10*
X42068750Y-99218750D03*
D11*
X36988750Y-99218750D03*
X47148750Y-99218750D03*
D10*
X23018750Y-99218750D03*
D11*
X17938750Y-99218750D03*
X28098750Y-99218750D03*
D10*
X3968750Y-99218750D03*
D11*
X-1111250Y-99218750D03*
X9048750Y-99218750D03*
D10*
X289718750Y-80168750D03*
D11*
X284638750Y-80168750D03*
X294798750Y-80168750D03*
D10*
X270668750Y-80168750D03*
D11*
X265588750Y-80168750D03*
X275748750Y-80168750D03*
D10*
X213518750Y-80168750D03*
D11*
X208438750Y-80168750D03*
X218598750Y-80168750D03*
D10*
X194468750Y-80168750D03*
D11*
X189388750Y-80168750D03*
X199548750Y-80168750D03*
D10*
X175418750Y-80168750D03*
D11*
X170338750Y-80168750D03*
X180498750Y-80168750D03*
D10*
X156368750Y-80168750D03*
D11*
X151288750Y-80168750D03*
X161448750Y-80168750D03*
D10*
X137318750Y-80168750D03*
D11*
X132238750Y-80168750D03*
X142398750Y-80168750D03*
D10*
X118268750Y-80168750D03*
D11*
X113188750Y-80168750D03*
X123348750Y-80168750D03*
D10*
X99218750Y-80168750D03*
D11*
X94138750Y-80168750D03*
X104298750Y-80168750D03*
D10*
X80168750Y-80168750D03*
D11*
X75088750Y-80168750D03*
X85248750Y-80168750D03*
D10*
X61118750Y-80168750D03*
D11*
X56038750Y-80168750D03*
X66198750Y-80168750D03*
D10*
X42068750Y-80168750D03*
D11*
X36988750Y-80168750D03*
X47148750Y-80168750D03*
D10*
X23018750Y-80168750D03*
D11*
X17938750Y-80168750D03*
X28098750Y-80168750D03*
D10*
X3968750Y-80168750D03*
D11*
X-1111250Y-80168750D03*
X9048750Y-80168750D03*
D10*
X213518750Y-61118750D03*
D11*
X208438750Y-61118750D03*
X218598750Y-61118750D03*
D10*
X194468750Y-61118750D03*
D11*
X189388750Y-61118750D03*
X199548750Y-61118750D03*
D10*
X175418750Y-61118750D03*
D11*
X170338750Y-61118750D03*
X180498750Y-61118750D03*
D10*
X156368750Y-61118750D03*
D11*
X151288750Y-61118750D03*
X161448750Y-61118750D03*
D10*
X137318750Y-61118750D03*
D11*
X132238750Y-61118750D03*
X142398750Y-61118750D03*
D10*
X118268750Y-61118750D03*
D11*
X113188750Y-61118750D03*
X123348750Y-61118750D03*
D10*
X99218750Y-61118750D03*
D11*
X94138750Y-61118750D03*
X104298750Y-61118750D03*
D10*
X80168750Y-61118750D03*
D11*
X75088750Y-61118750D03*
X85248750Y-61118750D03*
D10*
X61118750Y-61118750D03*
D11*
X56038750Y-61118750D03*
X66198750Y-61118750D03*
D10*
X42068750Y-61118750D03*
D11*
X36988750Y-61118750D03*
X47148750Y-61118750D03*
D10*
X23018750Y-61118750D03*
D11*
X17938750Y-61118750D03*
X28098750Y-61118750D03*
D10*
X3968750Y-61118750D03*
D11*
X-1111250Y-61118750D03*
X9048750Y-61118750D03*
D10*
X232568750Y-42068750D03*
D11*
X227488750Y-42068750D03*
X237648750Y-42068750D03*
D10*
X213518750Y-42068750D03*
D11*
X208438750Y-42068750D03*
X218598750Y-42068750D03*
D10*
X194468750Y-42068750D03*
D11*
X189388750Y-42068750D03*
X199548750Y-42068750D03*
D10*
X175418750Y-42068750D03*
D11*
X170338750Y-42068750D03*
X180498750Y-42068750D03*
D10*
X156368750Y-42068750D03*
D11*
X151288750Y-42068750D03*
X161448750Y-42068750D03*
D10*
X137318750Y-42068750D03*
D11*
X132238750Y-42068750D03*
X142398750Y-42068750D03*
D10*
X118268750Y-42068750D03*
D11*
X113188750Y-42068750D03*
X123348750Y-42068750D03*
D10*
X99218750Y-42068750D03*
D11*
X94138750Y-42068750D03*
X104298750Y-42068750D03*
D10*
X80168750Y-42068750D03*
D11*
X75088750Y-42068750D03*
X85248750Y-42068750D03*
D10*
X61118750Y-42068750D03*
D11*
X56038750Y-42068750D03*
X66198750Y-42068750D03*
D10*
X42068750Y-42068750D03*
D11*
X36988750Y-42068750D03*
X47148750Y-42068750D03*
D10*
X23018750Y-42068750D03*
D11*
X17938750Y-42068750D03*
X28098750Y-42068750D03*
D10*
X3968750Y-42068750D03*
D11*
X-1111250Y-42068750D03*
X9048750Y-42068750D03*
D10*
X289718750Y-23018750D03*
D11*
X284638750Y-23018750D03*
X294798750Y-23018750D03*
D10*
X261143750Y-23018750D03*
D11*
X256063750Y-23018750D03*
X266223750Y-23018750D03*
D12*
X249237500Y-16033750D03*
X273050000Y-16033750D03*
D10*
X249237500Y-31273750D03*
X273050000Y-31273750D03*
X232568750Y-23018750D03*
D11*
X227488750Y-23018750D03*
X237648750Y-23018750D03*
D10*
X213518750Y-23018750D03*
D11*
X208438750Y-23018750D03*
X218598750Y-23018750D03*
D10*
X194468750Y-23018750D03*
D11*
X189388750Y-23018750D03*
X199548750Y-23018750D03*
D10*
X175418750Y-23018750D03*
D11*
X170338750Y-23018750D03*
X180498750Y-23018750D03*
D10*
X156368750Y-23018750D03*
D11*
X151288750Y-23018750D03*
X161448750Y-23018750D03*
D10*
X137318750Y-23018750D03*
D11*
X132238750Y-23018750D03*
X142398750Y-23018750D03*
D10*
X118268750Y-23018750D03*
D11*
X113188750Y-23018750D03*
X123348750Y-23018750D03*
D10*
X99218750Y-23018750D03*
D11*
X94138750Y-23018750D03*
X104298750Y-23018750D03*
D10*
X80168750Y-23018750D03*
D11*
X75088750Y-23018750D03*
X85248750Y-23018750D03*
D10*
X61118750Y-23018750D03*
D11*
X56038750Y-23018750D03*
X66198750Y-23018750D03*
D10*
X42068750Y-23018750D03*
D11*
X36988750Y-23018750D03*
X47148750Y-23018750D03*
D10*
X3968750Y-23018750D03*
D11*
X-1111250Y-23018750D03*
X9048750Y-23018750D03*
M02*
