G04 #@! TF.GenerationSoftware,KiCad,Pcbnew,(5.1.4)-1*
G04 #@! TF.CreationDate,2022-05-27T22:51:18-07:00*
G04 #@! TF.ProjectId,bakeneko65ortho,62616b65-6e65-46b6-9f36-356f7274686f,rev?*
G04 #@! TF.SameCoordinates,Original*
G04 #@! TF.FileFunction,Copper,L1,Top*
G04 #@! TF.FilePolarity,Positive*
%FSLAX46Y46*%
G04 Gerber Fmt 4.6, Leading zero omitted, Abs format (unit mm)*
G04 Created by KiCad (PCBNEW (5.1.4)-1) date 2022-05-27 22:51:18*
%MOMM*%
%LPD*%
G04 APERTURE LIST*
%ADD10C,2.250000*%
%ADD11R,1.700000X1.700000*%
%ADD12O,1.700000X1.700000*%
%ADD13C,0.800000*%
%ADD14C,0.381000*%
%ADD15C,0.250000*%
G04 APERTURE END LIST*
D10*
X247015000Y-56038750D03*
X240665000Y-58578750D03*
X244633750Y-75088750D03*
X238283750Y-77628750D03*
D11*
X274383500Y-36004500D03*
D12*
X271843500Y-36004500D03*
X274383500Y-38544500D03*
X271843500Y-38544500D03*
X274383500Y-41084500D03*
X271843500Y-41084500D03*
D10*
X258921250Y-36988750D03*
X252571250Y-39528750D03*
X285115000Y-56038750D03*
X278765000Y-58578750D03*
X287496250Y-36988750D03*
X281146250Y-39528750D03*
X25558750Y-17938750D03*
X19208750Y-20478750D03*
X292258750Y-94138750D03*
X285908750Y-96678750D03*
X273208750Y-94138750D03*
X266858750Y-96678750D03*
X254158750Y-94138750D03*
X247808750Y-96678750D03*
X223202500Y-94138750D03*
X216852500Y-96678750D03*
X201771250Y-94138750D03*
X195421250Y-96678750D03*
X180340000Y-94138750D03*
X173990000Y-96678750D03*
X158908750Y-94138750D03*
X152558750Y-96678750D03*
X139858750Y-94138750D03*
X133508750Y-96678750D03*
X111283750Y-94138750D03*
X104933750Y-96678750D03*
X82708750Y-94138750D03*
X76358750Y-96678750D03*
X63658750Y-94138750D03*
X57308750Y-96678750D03*
X44608750Y-94138750D03*
X38258750Y-96678750D03*
X25558750Y-94138750D03*
X19208750Y-96678750D03*
X6508750Y-94138750D03*
X158750Y-96678750D03*
X292258750Y-75088750D03*
X285908750Y-77628750D03*
X273208750Y-75088750D03*
X266858750Y-77628750D03*
X216058750Y-75088750D03*
X209708750Y-77628750D03*
X197008750Y-75088750D03*
X190658750Y-77628750D03*
X177958750Y-75088750D03*
X171608750Y-77628750D03*
X158908750Y-75088750D03*
X152558750Y-77628750D03*
X139858750Y-75088750D03*
X133508750Y-77628750D03*
X120808750Y-75088750D03*
X114458750Y-77628750D03*
X101758750Y-75088750D03*
X95408750Y-77628750D03*
X82708750Y-75088750D03*
X76358750Y-77628750D03*
X63658750Y-75088750D03*
X57308750Y-77628750D03*
X44608750Y-75088750D03*
X38258750Y-77628750D03*
X25558750Y-75088750D03*
X19208750Y-77628750D03*
X6508750Y-75088750D03*
X158750Y-77628750D03*
X216058750Y-56038750D03*
X209708750Y-58578750D03*
X197008750Y-56038750D03*
X190658750Y-58578750D03*
X177958750Y-56038750D03*
X171608750Y-58578750D03*
X158908750Y-56038750D03*
X152558750Y-58578750D03*
X139858750Y-56038750D03*
X133508750Y-58578750D03*
X120808750Y-56038750D03*
X114458750Y-58578750D03*
X101758750Y-56038750D03*
X95408750Y-58578750D03*
X82708750Y-56038750D03*
X76358750Y-58578750D03*
X63658750Y-56038750D03*
X57308750Y-58578750D03*
X44608750Y-56038750D03*
X38258750Y-58578750D03*
X25558750Y-56038750D03*
X19208750Y-58578750D03*
X6508750Y-56038750D03*
X158750Y-58578750D03*
X235108750Y-36988750D03*
X228758750Y-39528750D03*
X216058750Y-36988750D03*
X209708750Y-39528750D03*
X197008750Y-36988750D03*
X190658750Y-39528750D03*
X177958750Y-36988750D03*
X171608750Y-39528750D03*
X158908750Y-36988750D03*
X152558750Y-39528750D03*
X139858750Y-36988750D03*
X133508750Y-39528750D03*
X120808750Y-36988750D03*
X114458750Y-39528750D03*
X101758750Y-36988750D03*
X95408750Y-39528750D03*
X82708750Y-36988750D03*
X76358750Y-39528750D03*
X63658750Y-36988750D03*
X57308750Y-39528750D03*
X44608750Y-36988750D03*
X38258750Y-39528750D03*
X25558750Y-36988750D03*
X19208750Y-39528750D03*
X6508750Y-36988750D03*
X158750Y-39528750D03*
X292258750Y-17938750D03*
X285908750Y-20478750D03*
X263683750Y-17938750D03*
X257333750Y-20478750D03*
X235108750Y-17938750D03*
X228758750Y-20478750D03*
X216058750Y-17938750D03*
X209708750Y-20478750D03*
X197008750Y-17938750D03*
X190658750Y-20478750D03*
X177958750Y-17938750D03*
X171608750Y-20478750D03*
X158908750Y-17938750D03*
X152558750Y-20478750D03*
X139858750Y-17938750D03*
X133508750Y-20478750D03*
X120808750Y-17938750D03*
X114458750Y-20478750D03*
X101758750Y-17938750D03*
X95408750Y-20478750D03*
X82708750Y-17938750D03*
X76358750Y-20478750D03*
X63658750Y-17938750D03*
X57308750Y-20478750D03*
X44608750Y-17938750D03*
X38258750Y-20478750D03*
X6508750Y-17938750D03*
X158750Y-20478750D03*
D13*
X265049000Y-43434000D03*
X262636000Y-44958000D03*
X269113000Y-43434000D03*
X270891000Y-61722000D03*
X260223000Y-59055000D03*
X277749000Y-44704000D03*
X263668750Y-38398259D03*
X278638000Y-43688000D03*
X260656499Y-44450000D03*
X276508490Y-42644050D03*
X278040000Y-63437651D03*
X274001349Y-63437651D03*
D14*
X265049000Y-43434000D02*
X264160000Y-43434000D01*
X264160000Y-43434000D02*
X262636000Y-44958000D01*
X265049000Y-43434000D02*
X269113000Y-43434000D01*
X260223000Y-47371000D02*
X262636000Y-44958000D01*
X260223000Y-59055000D02*
X260223000Y-47371000D01*
X269113000Y-43434000D02*
X276479000Y-43434000D01*
X277749000Y-54864000D02*
X270891000Y-61722000D01*
X277749000Y-44704000D02*
X277749000Y-54864000D01*
X276479000Y-43434000D02*
X277749000Y-44704000D01*
X273533501Y-40234501D02*
X274383500Y-41084500D01*
X273142999Y-39843999D02*
X273533501Y-40234501D01*
X265114490Y-39843999D02*
X273142999Y-39843999D01*
X263668750Y-38398259D02*
X265114490Y-39843999D01*
D15*
X262070998Y-44450000D02*
X263811999Y-42708999D01*
X263811999Y-42708999D02*
X277658999Y-42708999D01*
X277658999Y-42708999D02*
X278638000Y-43688000D01*
X260656499Y-44450000D02*
X262070998Y-44450000D01*
X274567034Y-63437651D02*
X278040000Y-63437651D01*
X273876651Y-63437651D02*
X274001349Y-63437651D01*
X274567034Y-63437651D02*
X273876651Y-63437651D01*
X158750Y-22069740D02*
X158750Y-39528750D01*
X158750Y-20478750D02*
X158750Y-22069740D01*
X158750Y-41119740D02*
X158750Y-58578750D01*
X158750Y-39528750D02*
X158750Y-41119740D01*
X158750Y-60169740D02*
X158750Y-77628750D01*
X158750Y-58578750D02*
X158750Y-60169740D01*
X158750Y-79219740D02*
X158750Y-96678750D01*
X158750Y-77628750D02*
X158750Y-79219740D01*
X19208750Y-22069740D02*
X19208750Y-39528750D01*
X19208750Y-20478750D02*
X19208750Y-22069740D01*
X19208750Y-41119740D02*
X19208750Y-58578750D01*
X19208750Y-39528750D02*
X19208750Y-41119740D01*
X19208750Y-58578750D02*
X19208750Y-77628750D01*
X19208750Y-77628750D02*
X19208750Y-96678750D01*
X38258750Y-22069740D02*
X38258750Y-39528750D01*
X38258750Y-20478750D02*
X38258750Y-22069740D01*
X38258750Y-41119740D02*
X38258750Y-58578750D01*
X38258750Y-39528750D02*
X38258750Y-41119740D01*
X38258750Y-60169740D02*
X38258750Y-77628750D01*
X38258750Y-58578750D02*
X38258750Y-60169740D01*
X38258750Y-79219740D02*
X38258750Y-96678750D01*
X38258750Y-77628750D02*
X38258750Y-79219740D01*
X57308750Y-22640724D02*
X57308750Y-39528750D01*
X57308750Y-20478750D02*
X57308750Y-22640724D01*
X57308750Y-41119740D02*
X57308750Y-58578750D01*
X57308750Y-39528750D02*
X57308750Y-41119740D01*
X57308750Y-60169740D02*
X57308750Y-77628750D01*
X57308750Y-58578750D02*
X57308750Y-60169740D01*
X57308750Y-77628750D02*
X57308750Y-96678750D01*
X76358750Y-22069740D02*
X76358750Y-39528750D01*
X76358750Y-20478750D02*
X76358750Y-22069740D01*
X76358750Y-41119740D02*
X76358750Y-58578750D01*
X76358750Y-39528750D02*
X76358750Y-41119740D01*
X76358750Y-60169740D02*
X76358750Y-77628750D01*
X76358750Y-58578750D02*
X76358750Y-60169740D01*
X76358750Y-77628750D02*
X76358750Y-96678750D01*
X95408750Y-22069740D02*
X95408750Y-39528750D01*
X95408750Y-20478750D02*
X95408750Y-22069740D01*
X95408750Y-41119740D02*
X95408750Y-58578750D01*
X95408750Y-39528750D02*
X95408750Y-41119740D01*
X95408750Y-60169740D02*
X95408750Y-77628750D01*
X95408750Y-58578750D02*
X95408750Y-60169740D01*
X95408750Y-79219740D02*
X95408750Y-77628750D01*
X95408750Y-85562760D02*
X95408750Y-79219740D01*
X104933750Y-95087760D02*
X95408750Y-85562760D01*
X104933750Y-96678750D02*
X104933750Y-95087760D01*
X114458750Y-22069740D02*
X114458750Y-39528750D01*
X114458750Y-20478750D02*
X114458750Y-22069740D01*
X114458750Y-41119740D02*
X114458750Y-58578750D01*
X114458750Y-39528750D02*
X114458750Y-41119740D01*
X114458750Y-60169740D02*
X114458750Y-77628750D01*
X114458750Y-58578750D02*
X114458750Y-60169740D01*
X133508750Y-22069740D02*
X133508750Y-39528750D01*
X133508750Y-20478750D02*
X133508750Y-22069740D01*
X133508750Y-41119740D02*
X133508750Y-58578750D01*
X133508750Y-39528750D02*
X133508750Y-41119740D01*
X133508750Y-58578750D02*
X133508750Y-77628750D01*
X133508750Y-79219740D02*
X133508750Y-96678750D01*
X133508750Y-77628750D02*
X133508750Y-79219740D01*
X152558750Y-22069740D02*
X152558750Y-39528750D01*
X152558750Y-20478750D02*
X152558750Y-22069740D01*
X152558750Y-41119740D02*
X152558750Y-58578750D01*
X152558750Y-39528750D02*
X152558750Y-41119740D01*
X152558750Y-58578750D02*
X152558750Y-77628750D01*
X152558750Y-79219740D02*
X152558750Y-96678750D01*
X152558750Y-77628750D02*
X152558750Y-79219740D01*
X171608750Y-22069740D02*
X171608750Y-39528750D01*
X171608750Y-20478750D02*
X171608750Y-22069740D01*
X171608750Y-41119740D02*
X171608750Y-58578750D01*
X171608750Y-39528750D02*
X171608750Y-41119740D01*
X171608750Y-60169740D02*
X171608750Y-77628750D01*
X171608750Y-58578750D02*
X171608750Y-60169740D01*
X171608750Y-94297500D02*
X173990000Y-96678750D01*
X171608750Y-77628750D02*
X171608750Y-94297500D01*
X190658750Y-20478750D02*
X190658750Y-39528750D01*
X190658750Y-41119740D02*
X190658750Y-58578750D01*
X190658750Y-39528750D02*
X190658750Y-41119740D01*
X190658750Y-60169740D02*
X190658750Y-77628750D01*
X190658750Y-58578750D02*
X190658750Y-60169740D01*
X190658750Y-91916250D02*
X195421250Y-96678750D01*
X190658750Y-77628750D02*
X190658750Y-91916250D01*
X209708750Y-22069740D02*
X209708750Y-39528750D01*
X209708750Y-20478750D02*
X209708750Y-22069740D01*
X209708750Y-39528750D02*
X209708750Y-58578750D01*
X209708750Y-58578750D02*
X209708750Y-77628750D01*
X209708750Y-89535000D02*
X216852500Y-96678750D01*
X209708750Y-77628750D02*
X209708750Y-89535000D01*
X228758750Y-20478750D02*
X228758750Y-39528750D01*
X240665000Y-75247500D02*
X238283750Y-77628750D01*
X240665000Y-58578750D02*
X240665000Y-75247500D01*
X238283750Y-79219740D02*
X238283750Y-77628750D01*
X238283750Y-79790724D02*
X238283750Y-79219740D01*
X247808750Y-89315724D02*
X238283750Y-79790724D01*
X247808750Y-96678750D02*
X247808750Y-89315724D01*
X240665000Y-56987760D02*
X240665000Y-58578750D01*
X240665000Y-53596974D02*
X240665000Y-56987760D01*
X228758750Y-41690724D02*
X240665000Y-53596974D01*
X228758750Y-39528750D02*
X228758750Y-41690724D01*
X257333750Y-34766250D02*
X252571250Y-39528750D01*
X257333750Y-20478750D02*
X257333750Y-34766250D01*
X252571250Y-41119740D02*
X252571250Y-39528750D01*
X252571250Y-53060272D02*
X252571250Y-41119740D01*
X266858750Y-67347772D02*
X252571250Y-53060272D01*
X266858750Y-77628750D02*
X266858750Y-67347772D01*
X266858750Y-79219740D02*
X266858750Y-96678750D01*
X266858750Y-77628750D02*
X266858750Y-79219740D01*
X285908750Y-95087760D02*
X285908750Y-77628750D01*
X285908750Y-96678750D02*
X285908750Y-95087760D01*
X278765000Y-70485000D02*
X285908750Y-77628750D01*
X278765000Y-58578750D02*
X278765000Y-70485000D01*
X285908750Y-34766250D02*
X281146250Y-39528750D01*
X285908750Y-20478750D02*
X285908750Y-34766250D01*
X287033749Y-76503751D02*
X285908750Y-77628750D01*
X291236251Y-72301249D02*
X287033749Y-76503751D01*
X291236251Y-38582749D02*
X291236251Y-72301249D01*
X285908750Y-33255248D02*
X291236251Y-38582749D01*
X285908750Y-20478750D02*
X285908750Y-33255248D01*
M02*
