M48
; DRILL file {KiCad (5.1.4)-1} date 5/27/2022 10:52:08 PM
; FORMAT={-:-/ absolute / inch / decimal}
; #@! TF.CreationDate,2022-05-27T22:52:08-07:00
; #@! TF.GenerationSoftware,Kicad,Pcbnew,(5.1.4)-1
; #@! TF.FileFunction,Plated,1,2,PTH
FMAT,2
INCH
T1C0.0157
T2C0.0394
T3C0.0579
%
G90
G05
T1
X10.245Y-2.325
X10.2621Y-1.75
X10.34Y-1.77
X10.3807Y-1.5117
X10.435Y-1.71
X10.595Y-1.71
X10.665Y-2.43
X10.7875Y-2.4975
X10.8862Y-1.6789
X10.935Y-1.76
X10.9465Y-2.4975
X10.97Y-1.72
T2
X10.7025Y-1.4175
X10.7025Y-1.5175
X10.7025Y-1.6175
X10.8025Y-1.4175
X10.8025Y-1.5175
X10.8025Y-1.6175
T3
X6.0062Y-2.3062
X6.2562Y-2.2062
X0.7562Y-1.5562
X1.0062Y-1.4563
X10.5062Y-3.0562
X10.7562Y-2.9562
X3.0063Y-3.0562
X3.2563Y-2.9562
X3.0063Y-1.5562
X3.2563Y-1.4563
X7.6937Y-3.8062
X7.9437Y-3.7062
X1.5062Y-2.3062
X1.7562Y-2.2062
X6.7562Y-3.0562
X7.0062Y-2.9562
X9.9437Y-1.5562
X10.1937Y-1.4563
X8.2562Y-2.3062
X8.5062Y-2.2062
X6.0062Y-3.0562
X6.2562Y-2.9562
X2.2563Y-0.8063
X2.5063Y-0.7062
X0.7562Y-0.8063
X1.0062Y-0.7062
X1.5062Y-0.8063
X1.7562Y-0.7062
X9.0062Y-0.8063
X9.2562Y-0.7062
X7.5062Y-0.8063
X7.7562Y-0.7062
X6.0062Y-3.8062
X6.2562Y-3.7062
X10.5062Y-3.8062
X10.7562Y-3.7062
X6.7562Y-2.3062
X7.0062Y-2.2062
X8.2562Y-1.5562
X8.5062Y-1.4563
X1.5062Y-3.8062
X1.7562Y-3.7062
X8.5375Y-3.8062
X8.7875Y-3.7062
X0.0062Y-3.0562
X0.2562Y-2.9562
X4.5062Y-1.5562
X4.7562Y-1.4563
X0.0062Y-3.8062
X0.2562Y-3.7062
X5.2562Y-2.3062
X5.5062Y-2.2062
X3.7563Y-1.5562
X4.0062Y-1.4563
X3.0063Y-3.8062
X3.2563Y-3.7062
X4.5062Y-2.3062
X4.7562Y-2.2062
X11.2562Y-0.8063
X11.5062Y-0.7062
X5.2562Y-3.8062
X5.5062Y-3.7062
X9.3812Y-3.0562
X9.6312Y-2.9562
X0.7562Y-2.3062
X1.0062Y-2.2062
X0.7562Y-3.8062
X1.0062Y-3.7062
X10.975Y-2.3062
X11.225Y-2.2062
X0.0062Y-2.3062
X0.2562Y-2.2062
X0.0062Y-0.8063
X0.2562Y-0.7062
X6.7562Y-0.8063
X7.0062Y-0.7062
X8.2562Y-0.8063
X8.5062Y-0.7062
X0.0062Y-1.5562
X0.2562Y-1.4563
X5.2562Y-3.0562
X5.5062Y-2.9562
X3.7563Y-0.8063
X4.0062Y-0.7062
X3.7563Y-2.3062
X4.0062Y-2.2062
X9.0062Y-1.5562
X9.2562Y-1.4563
X4.1312Y-3.8062
X4.3812Y-3.7062
X11.0687Y-1.5562
X11.3187Y-1.4563
X3.0063Y-2.3062
X3.2563Y-2.2062
X2.2563Y-1.5562
X2.5063Y-1.4563
X8.2562Y-3.0562
X8.5062Y-2.9562
X3.7563Y-3.0562
X4.0062Y-2.9562
X6.0062Y-1.5562
X6.2562Y-1.4563
X2.2563Y-3.8062
X2.5063Y-3.7062
X2.2563Y-2.3062
X2.5063Y-2.2062
X1.5062Y-1.5562
X1.7562Y-1.4563
X7.5062Y-3.0562
X7.7562Y-2.9562
X9.475Y-2.3062
X9.725Y-2.2062
X7.5062Y-2.3062
X7.7562Y-2.2062
X11.2562Y-3.0562
X11.5062Y-2.9562
X5.2562Y-0.8063
X5.5062Y-0.7062
X0.7562Y-3.0562
X1.0062Y-2.9562
X3.0063Y-0.8063
X3.2563Y-0.7062
X6.0062Y-0.8063
X6.2562Y-0.7062
X10.1312Y-0.8063
X10.3812Y-0.7062
X11.2562Y-3.8062
X11.5062Y-3.7062
X4.5062Y-0.8063
X4.7562Y-0.7062
X5.2562Y-1.5562
X5.5062Y-1.4563
X1.5062Y-3.0562
X1.7562Y-2.9562
X6.7562Y-1.5562
X7.0062Y-1.4563
X4.5062Y-3.0562
X4.7562Y-2.9562
X9.7562Y-3.8062
X10.0062Y-3.7062
X2.2563Y-3.0562
X2.5063Y-2.9562
X7.5062Y-1.5562
X7.7562Y-1.4563
X6.85Y-3.8062
X7.1Y-3.7062
T0
M30
